<?xml version="1.0" encoding="utf-8"?>
<!-- Generator: Adobe Illustrator 22.0.1, SVG Export Plug-In . SVG Version: 6.00 Build 0)  -->
<svg version="1.1" id="Layer_1" xmlns="http://www.w3.org/2000/svg" xmlns:xlink="http://www.w3.org/1999/xlink" x="0px" y="0px"
	 viewBox="0 0 306.4 132.9" style="enable-background:new 0 0 306.4 132.9;" xml:space="preserve">
<style type="text/css">
	.st0{fill:none;stroke:#FFCD05;stroke-miterlimit:10;}
	.st1{fill:#FFCD05;}
	.st2{fill:#243E90;}
	.st3{fill:none;stroke:#28292B;stroke-width:1.0006;stroke-miterlimit:10;}
	.st4{fill:none;stroke:#28292B;stroke-width:1.0006;stroke-miterlimit:10;stroke-dasharray:6.5828,6.5828;}
	.st5{fill:none;stroke:#28292B;stroke-width:1.0006;stroke-miterlimit:10;stroke-dasharray:6.9183,6.9183;}
</style>
<g>
	<g>
		<g>
			<polygon class="st1" points="176,111.1 174.9,106.4 178.5,103.3 173.8,102.9 171.9,98.6 170.1,102.9 165.3,103.3 168.9,106.4 
				167.8,111.1 171.9,108.6 			"/>
		</g>
		<g>
			<polygon class="st1" points="192.2,126.9 191.1,122.2 194.7,119.1 190,118.7 188.1,114.4 186.3,118.7 181.5,119.1 185.1,122.2 
				184.1,126.9 188.1,124.4 			"/>
		</g>
		<g>
			<polygon class="st1" points="214.4,132.4 213.3,127.8 216.9,124.7 212.1,124.3 210.3,119.9 208.4,124.3 203.7,124.7 207.3,127.8 
				206.2,132.4 210.3,130 			"/>
		</g>
		<g>
			<polygon class="st1" points="176,34 174.9,29.3 178.5,26.2 173.8,25.8 171.9,21.5 170.1,25.8 165.3,26.2 168.9,29.3 167.8,34 
				171.9,31.5 			"/>
		</g>
		<g>
			<polygon class="st1" points="192.2,18.1 191.1,13.4 194.7,10.3 190,9.9 188.2,5.6 186.3,9.9 181.6,10.3 185.2,13.4 184.1,18.1 
				188.2,15.6 			"/>
		</g>
		<g>
			<polygon class="st1" points="214.4,12.5 213.3,7.9 216.9,4.8 212.1,4.4 210.3,0 208.4,4.4 203.7,4.8 207.3,7.9 206.2,12.5 
				210.3,10.1 			"/>
		</g>
		<g>
			<polygon class="st1" points="248.7,108.6 252.8,111.1 251.7,106.4 255.3,103.3 250.5,102.9 248.7,98.6 246.8,102.9 242.1,103.3 
				245.7,106.4 244.6,111.1 			"/>
		</g>
		<g>
			<polygon class="st1" points="232.5,124.4 236.6,126.9 235.5,122.2 239.1,119.1 234.3,118.7 232.5,114.4 230.6,118.7 225.9,119.1 
				229.5,122.2 228.4,126.9 			"/>
		</g>
		<g>
			<polygon class="st1" points="248.7,31.5 252.8,34 251.7,29.3 255.3,26.2 250.5,25.8 248.7,21.5 246.8,25.8 242.1,26.2 
				245.7,29.3 244.6,34 			"/>
		</g>
		<g>
			<polygon class="st1" points="232.5,15.6 236.5,18.1 235.5,13.4 239,10.3 234.3,9.9 232.5,5.6 230.6,9.9 225.9,10.3 229.5,13.4 
				228.4,18.1 			"/>
		</g>
	</g>
	<g>
		<polygon class="st1" points="213,41.6 208.2,92.1 284.3,92.1 284.3,41.6 		"/>
	</g>
	<g>
		<polygon class="st1" points="234.4,41.6 230.3,80 295.3,80 295.3,41.6 		"/>
	</g>
	<g>
		<path class="st2" d="M69.3,46.5L58.8,92.3H40.9l-5.3-26l-5.3,26H12.4L1.9,46.5h15.5l4.1,28.9l6.2-28.9h15.7l6.2,28.9l4.1-28.9
			H69.3z"/>
		<path class="st2" d="M101.7,57.6c2.9,1.5,5.2,3.7,6.9,6.5c1.7,2.8,2.5,6.1,2.5,9.9c0,3.8-0.8,7.1-2.5,9.9c-1.7,2.8-4,5-6.9,6.5
			c-2.9,1.5-6.2,2.3-9.9,2.3c-3.7,0-7-0.8-9.9-2.3C79,89,76.7,86.8,75,84c-1.7-2.8-2.5-6.1-2.5-9.9c0-3.8,0.8-7.1,2.5-9.9
			c1.7-2.8,4-5,6.9-6.5c2.9-1.5,6.2-2.3,9.9-2.3C95.5,55.4,98.8,56.1,101.7,57.6z M88.5,69.4c-0.9,1.1-1.4,2.6-1.4,4.7
			c0,2.1,0.4,3.6,1.3,4.7c0.9,1.1,2,1.6,3.4,1.6c1.3,0,2.5-0.5,3.4-1.6c0.9-1.1,1.4-2.6,1.4-4.7c0-2.1-0.5-3.6-1.4-4.7
			c-0.9-1.1-2-1.6-3.4-1.6C90.5,67.8,89.4,68.3,88.5,69.4z"/>
		<path class="st2" d="M135.4,57.5c2.1-1.3,4.3-1.9,6.6-1.9v15.3H138c-2.7,0-4.7,0.5-6,1.4c-1.3,1-1.9,2.6-1.9,5.1v15h-14.4V55.8
			H130v6.7C131.5,60.4,133.3,58.7,135.4,57.5z"/>
		<path class="st2" d="M169.3,92.3l-9-14.6v14.6h-14.4V44.4h14.4v25.1l9.1-13.7h16.7l-13.7,18.4l14,18.1H169.3z"/>
	</g>
	<g>
		<g>
			<path class="st1" d="M183.5,82v-8.3l23.6-32.1h10.5v31.8h6.4V82h-6.4v10h-9.9V82H183.5z M208.5,53.3l-14.9,20.1h14.9V53.3z"/>
		</g>
	</g>
	<g>
		<g>
			<path class="st2" d="M239,54.2v6.3h15.7v11.9H239v7.1h17.8v12.6h-33.6V41.6h33.6v12.5H239z"/>
		</g>
		<g>
			<path class="st2" d="M277.8,41.6v28.1c0,2.3,0.5,4.1,1.5,5.5c1,1.3,2.6,2,4.9,2c2.3,0,3.9-0.7,5-2c1.1-1.3,1.6-3.2,1.6-5.5V41.6
				h15.6v28.1c0,4.7-1,8.8-3,12.2c-2,3.4-4.7,5.9-8.1,7.6c-3.4,1.7-7.3,2.5-11.5,2.5c-4.2,0-8-0.8-11.2-2.5
				c-3.3-1.7-5.8-4.2-7.6-7.5c-1.8-3.3-2.7-7.4-2.7-12.2V41.6H277.8z"/>
		</g>
	</g>
</g>
</svg>
